<svg width="157" height="157" viewBox="0 0 157 157" fill="none" xmlns="http://www.w3.org/2000/svg">
<path d="M35.149 29.5029C47.0987 18.9013 62.5261 13.0582 78.5006 13.0833C114.63 13.0833 143.917 42.3704 143.917 78.5C143.939 91.8705 139.843 104.924 132.188 115.886L114.48 78.5H130.834C130.834 68.0945 127.732 57.9252 121.925 49.2911C116.118 40.657 107.868 33.9502 98.2305 30.0273C88.5928 26.1044 78.0045 25.1436 67.8181 27.2676C57.6318 29.3916 48.3098 34.504 41.0431 41.9517L35.1556 29.5095L35.149 29.5029ZM121.852 127.497C109.903 138.099 94.4752 143.942 78.5006 143.917C42.371 143.917 13.084 114.63 13.084 78.5C13.084 64.599 17.4211 51.7119 24.8132 41.1144L42.5215 78.5H26.1673C26.1671 88.9055 29.2689 99.0748 35.0763 107.709C40.8837 116.343 49.1332 123.05 58.7708 126.973C68.4085 130.896 78.9968 131.856 89.1832 129.732C99.3695 127.608 108.692 122.496 115.958 115.048L121.846 127.491L121.852 127.497ZM55.6048 91.5833H91.584C92.4515 91.5833 93.2834 91.2387 93.8968 90.6253C94.5102 90.0119 94.8548 89.18 94.8548 88.3125C94.8548 87.445 94.5102 86.6131 93.8968 85.9997C93.2834 85.3863 92.4515 85.0417 91.584 85.0417H65.4173C61.0799 85.0417 56.9202 83.3186 53.8532 80.2516C50.7862 77.1846 49.0632 73.0249 49.0632 68.6875C49.0632 64.3501 50.7862 60.1904 53.8532 57.1234C56.9202 54.0564 61.0799 52.3333 65.4173 52.3333H71.959V45.7917H85.0423V52.3333H101.396V65.4167H65.4173C64.5498 65.4167 63.7179 65.7613 63.1045 66.3747C62.4911 66.9881 62.1465 67.82 62.1465 68.6875C62.1465 69.555 62.4911 70.3869 63.1045 71.0003C63.7179 71.6137 64.5498 71.9583 65.4173 71.9583H91.584C95.9214 71.9583 100.081 73.6814 103.148 76.7484C106.215 79.8154 107.938 83.9751 107.938 88.3125C107.938 92.6499 106.215 96.8096 103.148 99.8766C100.081 102.944 95.9214 104.667 91.584 104.667H85.0423V111.208H71.959V104.667H55.6048V91.5833Z" fill="url(#paint0_linear_43_65)"/>
<defs>
<linearGradient id="paint0_linear_43_65" x1="147.5" y1="75" x2="8.5" y2="74" gradientUnits="userSpaceOnUse">
<stop stop-color="#4A00E0"/>
<stop offset="1" stop-color="#8E2DE2"/>
</linearGradient>
</defs>
</svg>
