<?xml version="1.0" standalone="no"?>
<svg viewBox="0 0 200 200" xmlns="http://www.w3.org/2000/svg">
  <path fill="#8E2DE2" d="M37.7,-68C49.8,-58.4,61.1,-50.1,60.4,-39C59.8,-27.9,47.2,-13.9,40.7,-3.7C34.2,6.4,33.8,12.9,33.2,21.7C32.5,30.6,31.6,41.9,26.1,54.5C20.5,67,10.2,80.8,0,80.8C-10.3,80.9,-20.6,67.2,-29.7,56.7C-38.9,46.2,-46.8,38.9,-51.7,30C-56.6,21.1,-58.4,10.5,-53.1,3.1C-47.7,-4.4,-35.3,-8.8,-27.8,-13.1C-20.2,-17.5,-17.6,-21.7,-13.8,-36.2C-10,-50.6,-5,-75.2,3.9,-82C12.8,-88.7,25.7,-77.7,37.7,-68Z" transform="translate(100 100)" />
</svg>
