<?xml version="1.0" standalone="no"?>
<svg viewBox="0 0 200 200" xmlns="http://www.w3.org/2000/svg">
  <path fill="#F64F59" d="M22.9,-36.9C33.5,-33.6,48.5,-35.2,58.3,-29.8C68.1,-24.5,72.7,-12.2,73.2,0.3C73.6,12.8,69.9,25.5,62.3,34.6C54.7,43.8,43.2,49.3,32.1,52C21.1,54.7,10.5,54.6,2.7,49.9C-5.1,45.2,-10.3,36,-22.5,33.9C-34.6,31.9,-53.8,37,-65.9,32.6C-78,28.1,-82.9,14.1,-77.5,3.1C-72.1,-7.9,-56.5,-15.7,-44.1,-19.7C-31.8,-23.6,-22.7,-23.6,-15.9,-29.1C-9.1,-34.5,-4.5,-45.4,0.8,-46.8C6.2,-48.3,12.3,-40.2,22.9,-36.9Z" transform="translate(100 100)" />
</svg>
