<?xml version="1.0" standalone="no"?>
<svg viewBox="0 0 200 200" xmlns="http://www.w3.org/2000/svg">
  <path fill="#4A00E0" d="M36.6,-71.2C40.4,-61.2,31.8,-37.3,31,-23.1C30.2,-8.9,37.3,-4.5,45.2,4.6C53.1,13.6,61.8,27.1,59.9,36.6C57.9,46.1,45.4,51.5,33.7,55.8C21.9,60.1,11,63.2,-1.4,65.7C-13.8,68.1,-27.6,69.8,-33.4,62.2C-39.3,54.5,-37.4,37.5,-44.3,25.6C-51.3,13.6,-67.3,6.8,-73.9,-3.9C-80.6,-14.5,-78.1,-29.1,-67.3,-34.5C-56.6,-40,-37.8,-36.4,-25.2,-41.4C-12.6,-46.3,-6.3,-59.9,5,-68.6C16.4,-77.3,32.7,-81.2,36.6,-71.2Z" transform="translate(100 100)" />
</svg>
